# Blender v2.78 (sub 0) OBJ File: 'untitled.blend'
# www.blender.org
mtllib interiorwindowframe.mtl
o ________11_________11.002
v -0.197540 0.116930 -0.355402
v -0.197540 0.117085 -0.363076
v -0.146535 0.228421 -0.379419
v -0.147699 0.226025 -0.387028
v -0.200600 0.109319 -0.085621
v -0.200600 0.109237 -0.082328
v -0.175758 0.169967 -0.096954
v -0.164394 0.194061 -0.102755
v -0.132415 0.252413 -0.116803
v -0.132415 0.252413 -0.118916
v -0.164430 0.194020 -0.105331
v -0.132002 0.252439 -0.130838
v -0.200193 0.108743 -0.061314
v -0.164230 0.193804 -0.120287
v -0.157764 0.206192 -0.090700
v -0.132003 0.252439 -0.104644
v -0.163762 0.194343 -0.087128
v -0.200192 0.109830 -0.105173
v -0.198440 0.098613 0.244327
v -0.198116 0.096600 0.297570
v -0.178980 0.152221 0.224113
v -0.189940 0.121985 0.266504
v 0.402759 0.116930 -0.355402
v 0.402759 0.117085 -0.363076
v 0.351754 0.228421 -0.379418
v 0.352918 0.226025 -0.387028
v 0.408078 0.109319 -0.085621
v 0.408078 0.109237 -0.082328
v 0.371871 0.194061 -0.102755
v 0.339893 0.252413 -0.116803
v 0.339893 0.252413 -0.118916
v 0.371908 0.194020 -0.105331
v 0.383280 0.169924 -0.099725
v 0.339480 0.252439 -0.130838
v 0.407670 0.108743 -0.061314
v 0.371707 0.193804 -0.120287
v 0.383126 0.169694 -0.115948
v 0.339481 0.252439 -0.104644
v 0.382557 0.170263 -0.079867
v 0.371239 0.194343 -0.087128
v 0.407670 0.109830 -0.105172
v 0.404091 0.098613 0.244327
v 0.403767 0.096600 0.297570
v 0.384632 0.152221 0.224113
v 0.397393 0.116603 0.273359
v 0.391746 0.133102 0.251872
v 0.390047 0.138642 0.228519
vn -0.9420 -0.3352 -0.0140
vn -0.9201 -0.3917 -0.0014
vn 0.8784 -0.4774 0.0234
vn 0.9087 -0.4175 -0.0080
vn 0.9087 0.4175 0.0080
vn 0.8759 -0.4823 -0.0125
vn 0.9203 -0.3909 0.0129
vn -0.8737 -0.4857 -0.0274
vn 0.9422 -0.3349 -0.0082
vn -0.8784 -0.4774 0.0235
vn 0.9134 -0.4034 -0.0550
vn -0.9209 -0.3896 0.0129
usemtl wire_006134113.002
s off
f 46//1 44//1 47//1 42//1 43//1 45//1
f 28//2 35//2 39//2 40//2 29//2
f 12//3 10//3 11//3 14//3
f 2//4 4//4 3//4 1//4
f 23//5 24//5 26//5 25//5
f 15//6 17//6 8//6 9//6 16//6
f 5//7 18//7 14//7 11//7
f 38//8 30//8 29//8 40//8
f 21//9 22//9 20//9 19//9
f 36//10 32//10 31//10 34//10
f 7//11 8//11 17//11 13//11 6//11
f 33//12 32//12 36//12 37//12 41//12 27//12
